<?xml version="1.0" encoding="UTF-8"?>
<svg version="1.1" xmlns="http://www.w3.org/2000/svg" width="512" height="512">
<path d="M0 0 C1.60322258 -0.02077849 1.60322258 -0.02077849 3.23883349 -0.04197675 C6.80885249 -0.08427314 10.37866324 -0.10531028 13.9488678 -0.12605286 C16.51357562 -0.15140961 19.07827302 -0.17783957 21.64295959 -0.20526123 C29.32971778 -0.28167905 37.01647631 -0.33198975 44.70348701 -0.37477371 C46.87789199 -0.38701209 49.05229181 -0.39993989 51.22669148 -0.41308427 C64.75670329 -0.4945392 78.28673455 -0.56526189 91.81693172 -0.60695934 C94.94570905 -0.61676665 98.07448594 -0.62669321 101.20326233 -0.63679504 C101.98081072 -0.63929551 102.75835912 -0.64179597 103.55946959 -0.6443722 C116.14174102 -0.68664343 128.72257953 -0.79415778 141.30417078 -0.9284217 C154.24880205 -1.06541567 167.19270072 -1.14133619 180.138053 -1.15899736 C187.3958503 -1.17044361 194.65136768 -1.20818213 201.90844536 -1.31494713 C208.74268325 -1.41534925 215.57293766 -1.43288253 222.40779877 -1.39617348 C224.9051198 -1.39578762 227.40262643 -1.42243545 229.89930153 -1.47923279 C241.31663051 -1.72476424 250.70104373 -1.89049394 259.62296635 5.94854897 C262.35311353 8.64593531 264.89926925 11.44442772 267.36932194 14.38085592 C270.34192559 17.83117065 273.63050618 20.95336919 276.89051819 24.12858582 C278.12274116 25.36382129 279.35286756 26.60115531 280.57997131 27.84147644 C281.48138855 28.75207825 281.48138855 28.75207825 282.40101624 29.68107605 C283.30654236 30.59675354 283.30654236 30.59675354 284.23036194 31.53092957 C286.69735754 34.02486934 289.16793432 36.51518778 291.64051819 39.00358582 C292.45009727 39.82561241 292.45009727 39.82561241 293.27603149 40.66424561 C296.12691105 43.53305815 299.04557538 46.2637481 302.10707092 48.90763855 C306.14494812 52.40201621 309.91795223 56.10690481 313.66786194 59.90592957 C314.68783264 60.9315802 314.68783264 60.9315802 315.72840881 61.97795105 C318.60011337 64.8658073 321.46574631 67.75966032 324.33192444 70.65299988 C326.44178981 72.78108681 328.55475839 74.90605873 330.66786194 77.03092957 C331.30143616 77.67280212 331.93501038 78.31467468 332.58778381 78.97599792 C336.34618601 82.75461188 340.23064351 86.31094839 344.26383972 89.79371643 C347.08063036 92.2712696 349.73628086 94.89337358 352.38270569 97.55046082 C353.19452049 98.36084053 353.19452049 98.36084053 354.0227356 99.18759155 C355.14891653 100.31309986 356.27386755 101.43984014 357.39759827 102.5677948 C359.12260906 104.29823093 360.85298622 106.02317446 362.58387756 107.74772644 C363.68380827 108.84831686 364.78342932 109.94921685 365.88270569 111.05046082 C366.39929245 111.56502335 366.91587921 112.07958588 367.44812012 112.60974121 C371.56781841 116.75680014 372.29259622 118.53982874 372.30208302 124.3473177 C372.30654086 125.6077553 372.3109987 126.86819291 372.31559163 128.16682559 C372.31550233 129.57866499 372.31531245 130.99050438 372.31503296 132.40234375 C372.3183306 133.89210837 372.32205596 135.38187209 372.32617444 136.87163466 C372.33621467 140.98079062 372.33991451 145.08993198 372.34256375 149.19909847 C372.34646106 153.62539918 372.35604007 158.05168826 372.36477661 162.47798157 C372.38456175 173.1780829 372.39461179 183.87818521 372.4035044 194.57830027 C372.4078857 199.61688472 372.41325308 204.65546812 372.41849327 209.69405174 C372.43551089 226.44506646 372.45000349 243.19608051 372.45724201 259.94710255 C372.45915194 264.2965781 372.46107226 268.64605364 372.46302795 272.99552917 C372.46351169 274.0765813 372.46399543 275.15763342 372.46449383 276.2714447 C372.47278811 293.77068837 372.49811247 311.26986355 372.53060863 328.76907734 C372.56369974 346.73527196 372.5816928 364.70143182 372.58488625 382.66765708 C372.58704992 392.75479766 372.59577706 402.84183849 372.62134743 412.92894936 C372.6430828 421.52319019 372.65109105 430.11730706 372.64138065 438.71157227 C372.63684358 443.09394524 372.63868728 447.47606262 372.65814209 451.85840034 C372.67583011 455.8776479 372.67473074 459.89645447 372.6592448 463.91570707 C372.65687718 465.36271156 372.66114801 466.80974703 372.67307345 468.25670431 C372.76658895 480.3621177 371.35562509 491.9717513 363.22645569 501.46452332 C356.17256214 508.3310269 348.90384323 512.7125725 338.89493084 512.72569847 C337.64844601 512.73214736 336.40196119 512.73859626 335.11770409 512.74524057 C333.74238907 512.74229857 332.36707445 512.73916316 330.99176025 512.7358551 C329.52456485 512.73959283 328.05737143 512.74419484 326.59018117 512.74958575 C322.56212964 512.76181603 318.53416116 512.76155525 314.50609529 512.759197 C310.16037172 512.75878884 305.81467478 512.76982787 301.46896362 512.77931213 C292.95631512 512.79592315 284.44369431 512.80142172 275.93103095 512.80253689 C269.01143354 512.80348729 262.09184527 512.80759721 255.17225075 512.81393814 C235.55312586 512.83155065 215.93402284 512.84077697 196.31488999 512.83927719 C194.72846975 512.83915732 194.72846975 512.83915732 193.11000061 512.83903503 C192.05109555 512.83895327 190.9921905 512.83887151 189.90119741 512.83878727 C172.7389935 512.83797432 155.57687733 512.85711433 138.4146988 512.88531177 C120.79191574 512.91403748 103.16917549 512.92785224 85.54636842 512.92612422 C75.65280439 512.92546022 65.75933236 512.93095687 55.86578941 512.95248032 C47.44243525 512.97068796 39.01921479 512.97504285 30.59584948 512.96146147 C26.2990088 512.95492978 22.00242467 512.95482181 17.70560837 512.97216797 C13.76937019 512.98789492 9.83359206 512.98503918 5.89736513 512.9675997 C4.47612656 512.96452896 3.05485368 512.96816509 1.63365557 512.97931986 C-6.4195559 513.03832409 -12.8055249 512.60391 -19.83213806 508.46842957 C-20.63006775 507.99921082 -21.42799744 507.52999207 -22.25010681 507.04655457 C-31.36416036 500.20598457 -35.45415629 492.60838888 -37.83213806 481.46842957 C-38.52084755 475.30901794 -38.37374721 469.09697796 -38.34007263 462.90885925 C-38.34468855 461.05073942 -38.35104608 459.19262324 -38.35898161 457.33451462 C-38.3756031 452.25817533 -38.36746132 447.18213876 -38.35503674 442.10579872 C-38.34595908 436.61968105 -38.35996942 431.13361418 -38.37095642 425.64750671 C-38.38871726 414.91191517 -38.38491249 404.17643566 -38.37330586 393.44083977 C-38.36426223 384.71365822 -38.36305156 375.98650801 -38.36740112 367.25932312 C-38.36801406 366.01592533 -38.36862699 364.77252754 -38.36925849 363.49145103 C-38.37053743 360.96529546 -38.37183428 358.43913991 -38.37314886 355.91298437 C-38.38422276 332.91495537 -38.37275024 309.91697593 -38.35177847 286.91895908 C-38.3327974 265.94453116 -38.33449597 244.97020039 -38.35362244 223.99577332 C-38.37506179 200.40640386 -38.38344895 176.81707576 -38.37117338 153.22769547 C-38.36989922 150.71097566 -38.36864174 148.19425584 -38.36740112 145.67753601 C-38.36678402 144.43935049 -38.36616692 143.20116497 -38.36553112 141.92545867 C-38.3620814 133.21153821 -38.36789842 124.49765229 -38.37731934 115.78373718 C-38.38855243 105.16040418 -38.38547163 94.53718937 -38.36419636 83.91386986 C-38.35370369 78.49654005 -38.3495338 73.07940709 -38.36279297 67.66207886 C-38.37475948 62.69771197 -38.3680842 57.73372342 -38.34688276 52.76939058 C-38.34243472 50.97885017 -38.34464224 49.18827743 -38.35438591 47.39775801 C-38.41683528 34.96273308 -38.00265021 22.26431054 -29.59385681 12.24577332 C-20.71879497 3.29199696 -12.44557912 0.02739118 0 0 Z " fill="#EBEEF0" transform="translate(88.83213806152344,-0.4684295654296875)"/>
<path d="M0 0 C1.63178846 -0.00761181 1.63178846 -0.00761181 3.29654235 -0.0153774 C4.49632273 -0.01587516 5.69610312 -0.01637292 6.93224049 -0.01688576 C8.20322757 -0.02126801 9.47421466 -0.02565027 10.7837165 -0.03016531 C14.31878367 -0.0421345 17.8538372 -0.04778006 21.38892066 -0.05234647 C25.1988816 -0.05830123 29.00882621 -0.06991137 32.81877613 -0.08063698 C42.02342115 -0.1051635 51.22807158 -0.1197883 60.43273923 -0.13269705 C63.03223238 -0.13640873 65.631725 -0.14038198 68.23121762 -0.14444971 C84.3713816 -0.16968549 100.51154642 -0.19174006 116.65172577 -0.20417786 C120.3905605 -0.20710758 124.1293952 -0.21006924 127.86822987 -0.21308327 C128.79750669 -0.21382932 129.72678351 -0.21457537 130.68422023 -0.21534403 C145.73922286 -0.22799868 160.79410741 -0.26122312 175.84905484 -0.3028851 C191.30323883 -0.34530157 206.75736236 -0.36887254 222.21160442 -0.37409842 C230.88958714 -0.37751282 239.56738533 -0.38927134 248.24531078 -0.42220116 C255.63562728 -0.45019887 263.0257214 -0.46120226 270.41608682 -0.4500057 C274.18629758 -0.44481831 277.95604266 -0.44771031 281.7261858 -0.47247124 C285.81578315 -0.49910583 289.90435524 -0.48690633 293.99400806 -0.47098732 C295.77694823 -0.49181045 295.77694823 -0.49181045 297.59590739 -0.51305425 C304.60320462 -0.44576305 309.4020121 0.47051126 314.78058338 5.13701439 C318.6312936 9.38266925 319.90379611 11.75671251 319.92102528 17.42430687 C319.92673542 18.54588188 319.93244556 19.66745689 319.93832874 20.82301903 C319.9394466 22.05940117 319.94056446 23.29578331 319.94171619 24.56963158 C319.9466811 25.86726433 319.951646 27.16489708 319.95676136 28.50185204 C319.969895 32.06813792 319.97633249 35.63440496 319.98077202 39.20071125 C319.98370193 41.42898564 319.98780664 43.65725486 319.99227619 45.88552666 C320.0059553 52.85766792 320.01561923 59.82979741 320.01947808 66.80195117 C320.02395633 74.84913724 320.04149152 82.89615325 320.07047868 90.94328761 C320.09210592 97.16333131 320.10218296 103.3833272 320.1035192 109.6034081 C320.10456673 113.3181755 320.11046298 117.03278312 320.12833881 120.74751091 C320.14790353 124.89405159 320.14352638 129.04023733 320.13702869 133.18681908 C320.14624348 134.41510429 320.15545826 135.64338951 320.16495228 136.90889549 C320.1313998 143.73400299 319.86487121 148.72354503 315.09698963 154.00029564 C314.51820057 154.47853783 313.93941151 154.95678001 313.34308338 155.44951439 C312.76687244 155.9406472 312.19066151 156.43178001 311.59698963 156.93779564 C308.08959188 159.25343243 304.5474556 159.26343086 300.43253231 159.27123547 C299.34144889 159.27569331 298.25036547 159.28015115 297.12621891 159.28474408 C295.32887124 159.28446754 295.32887124 159.28446754 293.49521351 159.28418541 C292.22196087 159.2878621 290.94870823 159.29153879 289.63687217 159.29532689 C286.10020064 159.30533777 282.56354608 159.30906219 279.02686238 159.3117162 C275.21355071 159.3156218 271.40025245 159.32519977 267.58694935 159.33392906 C258.37827956 159.35368325 249.16960869 159.36375704 239.96092302 159.37265685 C235.62525442 159.3770403 231.28958704 159.38240685 226.95391941 159.38764572 C212.54384394 159.40465476 198.13376923 159.41915029 183.72368526 159.42639446 C179.98500155 159.42830437 176.24631785 159.4302247 172.50763416 159.4321804 C171.57839822 159.43266414 170.64916228 159.43314789 169.69176768 159.43364628 C154.62903075 159.44195177 139.56637311 159.46729888 124.50367083 159.49976108 C109.04268395 159.53281042 93.58173741 159.55084118 78.12071502 159.5540387 C69.43837018 159.55620546 60.75614105 159.56497861 52.0738306 159.59049988 C44.68203652 159.61217762 37.29038626 159.62027166 29.898564 159.6105331 C26.1266341 159.60598024 22.35500116 159.60793151 18.58311176 159.62729454 C14.49517111 159.6480991 10.40789256 159.63796759 6.31992054 159.62476158 C4.52926503 159.64121545 4.52926503 159.64121545 2.70243466 159.65800172 C-4.79463674 159.59932104 -8.44941072 158.79956169 -13.86394787 153.53935814 C-17.37983953 149.12979501 -18.34229242 146.28725446 -18.36658764 140.72946739 C-18.37732059 139.04504288 -18.37732059 139.04504288 -18.38827038 137.32658958 C-18.39095928 136.09380272 -18.39364819 134.86101585 -18.39641857 133.59087181 C-18.40298977 132.29309303 -18.40956097 130.99531425 -18.41633129 129.65820885 C-18.43735377 125.35297948 -18.44773138 121.04774984 -18.45769787 116.74248314 C-18.46174598 115.2595302 -18.46586292 113.77657744 -18.47004795 112.29362488 C-18.48909497 105.32682964 -18.5033275 98.36004497 -18.51165992 91.39322871 C-18.52143351 83.35449257 -18.54775801 75.31603171 -18.58816081 67.27739257 C-18.61832875 61.06157613 -18.63312939 54.84583857 -18.63644093 48.62995034 C-18.63879051 44.91849348 -18.6477385 41.20733086 -18.67290211 37.49595261 C-18.70053037 33.35423915 -18.69634967 29.21314032 -18.68938732 25.07134056 C-18.70219738 23.84462639 -18.71500744 22.61791222 -18.72820568 21.35402489 C-18.68135368 13.72007008 -17.97278567 10.00050673 -12.62176037 4.49248314 C-8.28301287 1.03305513 -5.47169647 0.01353336 0 0 Z " fill="#FE5100" transform="translate(105.21941661834717,311.8629856109619)"/>
<path d="M0 0 C4.68942174 0.93558843 6.94200067 3.49912981 10.25390625 6.82421875 C10.95636475 7.50605225 11.65882324 8.18788574 12.38256836 8.89038086 C15.00586864 11.45237501 17.60020322 14.0423812 20.19140625 16.63671875 C21.35667111 17.80055559 22.52204173 18.96428653 23.6875 20.12792969 C34.07921695 30.50997195 34.07921695 30.50997195 39.03735352 35.51831055 C39.64724121 36.13263947 40.25712891 36.74696838 40.88549805 37.37991333 C42.02512677 38.52812643 43.16276607 39.67831958 44.29785156 40.83102417 C47.14946648 43.70017488 50.06854082 46.43153738 53.13061523 49.07592773 C57.16849243 52.5703054 60.94149654 56.275194 64.69140625 60.07421875 C65.37138672 60.75798584 66.05136719 61.44175293 66.75195312 62.14624023 C69.62365768 65.03409648 72.48929063 67.9279495 75.35546875 70.82128906 C77.46533412 72.949376 79.5783027 75.07434792 81.69140625 77.19921875 C82.32498047 77.84109131 82.95855469 78.48296387 83.61132812 79.14428711 C87.37026718 82.92344082 91.25139782 86.4895329 95.28515625 89.97314453 C99.84929096 93.95624058 104.15548143 98.21800866 108.47607422 102.46142578 C109.62698175 103.58546897 110.78499206 104.7022819 111.94970703 105.81201172 C113.65157132 107.43485238 115.32938532 109.07948476 117.00390625 110.73046875 C117.5256543 111.21922485 118.04740234 111.70798096 118.58496094 112.21154785 C121.28713575 114.92908635 122.16985371 116.48165561 122.703125 120.31835938 C122.15829427 123.8514411 121.96296412 124.58831728 119.19140625 126.63671875 C116.90970612 127.01424217 116.90970612 127.01424217 114.18127441 127.01766968 C113.14654495 127.02612915 112.11181549 127.03458862 111.04573059 127.04330444 C109.34376778 127.0341954 109.34376778 127.0341954 107.60742188 127.02490234 C106.41211349 127.0301593 105.21680511 127.03541626 103.98527527 127.04083252 C100.70630783 127.05178434 97.42770286 127.0492027 94.14874077 127.03969526 C90.7188223 127.03210492 87.2889282 127.03914253 83.85900879 127.04385376 C78.09883266 127.04931315 72.3387719 127.04211496 66.57861328 127.02783203 C59.91714372 127.01150506 53.2559496 127.01679344 46.59448671 127.03331125 C40.87720521 127.04692096 35.16000668 127.04884833 29.44271421 127.04099524 C26.02709659 127.03631584 22.61160847 127.03570106 19.19599915 127.04560471 C15.38893836 127.0531968 11.5824115 127.0416456 7.77539062 127.02490234 C6.64074875 127.03097504 5.50610687 127.03704773 4.33708191 127.04330444 C3.30235245 127.03484497 2.26762299 127.0263855 1.20153809 127.01766968 C-0.14903561 127.01597306 -0.14903561 127.01597306 -1.52689362 127.01424217 C-3.80859375 126.63671875 -3.80859375 126.63671875 -5.59749699 125.41613102 C-7.18710138 123.0805938 -7.18840112 121.60256703 -7.1962738 118.78517151 C-7.20617844 117.78554382 -7.21608307 116.78591614 -7.22628784 115.7559967 C-7.22178619 114.66032883 -7.21728455 113.56466095 -7.21264648 112.43579102 C-7.21950974 111.28110321 -7.22637299 110.12641541 -7.23344421 108.93673706 C-7.25178906 105.10874231 -7.24786359 101.2811544 -7.2421875 97.453125 C-7.24559412 95.46948696 -7.24900775 93.48584873 -7.25354058 91.50221294 C-7.26759332 85.26404412 -7.26601859 79.02601223 -7.25463867 72.7878418 C-7.24315831 66.35240775 -7.25722957 59.91739049 -7.28403515 53.48201138 C-7.30618845 47.95663885 -7.31283036 42.43139718 -7.30695873 36.90598339 C-7.30358677 33.60595744 -7.30772318 30.30625812 -7.32320976 27.00625801 C-7.33804528 23.32620138 -7.32749613 19.64706825 -7.31030273 15.96704102 C-7.3199707 14.87339737 -7.32963867 13.77975372 -7.33959961 12.65296936 C-7.32976547 11.65052185 -7.31993134 10.64807434 -7.30979919 9.61524963 C-7.30958991 8.74528634 -7.30938063 7.87532305 -7.309165 6.97899723 C-6.42600126 2.8464878 -4.0187699 0.91107023 0 0 Z " fill="#A79BA7" transform="translate(337.80859375,-0.63671875)"/>
<path d="M0 0 C1.07987558 -0.00782324 2.15975117 -0.01564648 3.27235025 -0.02370679 C4.46318627 -0.01701463 5.65402229 -0.01032246 6.88094425 -0.00342751 C8.14250294 -0.00810748 9.40406163 -0.01278745 10.70384938 -0.01760924 C14.21251607 -0.03017054 17.720939 -0.02392574 21.22960675 -0.01465058 C25.01086902 -0.00788124 28.79208847 -0.01833083 32.57334232 -0.02659035 C39.98384537 -0.03995295 47.39425743 -0.03703862 54.80476408 -0.02835242 C60.82631034 -0.02158569 66.84783104 -0.02065478 72.86938 -0.02392387 C73.72540526 -0.02438357 74.58143052 -0.02484327 75.46339594 -0.0253169 C77.20224142 -0.02627605 78.9410869 -0.02724869 80.67993236 -0.02823468 C96.99793433 -0.0367961 113.3158858 -0.02694292 129.63387949 -0.01083358 C143.6426971 0.00256789 157.65144013 0.00024439 171.66025639 -0.01358986 C187.91709547 -0.02963653 204.17389023 -0.03596953 220.43073612 -0.02675307 C222.16360032 -0.02579739 223.89646452 -0.02485428 225.62932873 -0.02392387 C226.90832212 -0.02322963 226.90832212 -0.02322963 228.21315376 -0.02252137 C234.22861252 -0.01992856 240.24404323 -0.02430879 246.25949764 -0.03136253 C253.5887882 -0.03976771 260.91798234 -0.03751825 268.24726181 -0.0215203 C271.98849947 -0.01362392 275.72957625 -0.01056908 279.4708128 -0.02046776 C283.52221476 -0.03102511 287.57320884 -0.01843827 291.6245966 -0.00342751 C292.81320189 -0.01011967 294.00180719 -0.01681184 295.22643083 -0.02370679 C296.30891416 -0.01588355 297.39139749 -0.00806031 298.50668335 0 C299.44220691 0.00048706 300.37773046 0.00097411 301.34160322 0.00147593 C304.31988466 0.45405354 305.69165924 1.25822947 307.81626225 3.37752342 C308.31626225 6.87752342 308.31626225 6.87752342 307.81626225 10.37752342 C304.8486082 13.33776177 302.61785817 13.75290646 298.50668335 13.75504684 C297.42420002 13.76287009 296.34171669 13.77069333 295.22643083 13.77875364 C293.44352289 13.76871539 293.44352289 13.76871539 291.6245966 13.75847435 C290.36147791 13.76315432 289.09835923 13.76783429 287.79696423 13.77265608 C284.28862609 13.78520124 280.78053219 13.7789799 277.27219307 13.76969743 C273.48960425 13.76292167 269.707058 13.77338078 265.92447758 13.78163719 C258.51377872 13.79499212 251.10317091 13.79208909 243.69246846 13.78339927 C237.67141427 13.77663055 231.65038563 13.77570248 225.62932873 13.77897072 C224.34506099 13.77966027 224.34506099 13.77966027 223.03484844 13.78036375 C221.29567876 13.7813229 219.55650909 13.78229554 217.81733943 13.78328152 C201.5012709 13.79184043 185.18525291 13.78199316 168.86919267 13.76588042 C154.86006881 13.75247438 140.85101952 13.75480671 126.84189701 13.7686367 C110.58359536 13.78467954 94.325338 13.79101894 78.06702954 13.78179991 C76.3344797 13.78084424 74.60192985 13.77990113 72.86938 13.77897072 C72.01687201 13.77850789 71.16436403 13.77804507 70.28602247 13.77756821 C64.26958136 13.77497461 58.25316829 13.77935724 52.23673153 13.78640938 C44.90853454 13.79481009 37.58043399 13.79257435 30.2522481 13.77656715 C26.51112737 13.76866545 22.77016762 13.76562496 19.02904797 13.7755146 C14.97953898 13.78605786 10.93043893 13.77349666 6.88094425 13.75847435 C5.69010823 13.76516652 4.49927221 13.77185868 3.27235025 13.77875364 C2.19247467 13.7709304 1.11259909 13.76310715 0 13.75504684 C-0.9353612 13.75455979 -1.87072241 13.75407273 -2.83442789 13.75357091 C-5.18373775 13.37752342 -5.18373775 13.37752342 -6.98428386 12.07267821 C-8.99016426 9.2378233 -8.54199846 6.72128999 -8.18373775 3.37752342 C-5.86948226 0.10685056 -3.87302779 0.00201675 0 0 Z " fill="#A89CA8" transform="translate(106.18373775482178,262.6224765777588)"/>
<path d="M0 0 C1.08397568 -0.00782324 2.16795135 -0.01564648 3.28477478 -0.02370679 C5.07788841 -0.01366855 5.07788841 -0.01366855 6.90722656 -0.00342751 C8.17357437 -0.00810748 9.43992218 -0.01278745 10.74464417 -0.01760924 C14.26664274 -0.03017064 17.78839848 -0.02392571 21.3103981 -0.01465058 C25.10595625 -0.00788135 28.90147173 -0.01833072 32.69702148 -0.02659035 C40.1352629 -0.03995268 47.57341366 -0.03703885 55.01165867 -0.02835242 C61.05514332 -0.02158609 67.0986025 -0.0206546 73.14208984 -0.02392387 C74.00117919 -0.02438357 74.86026854 -0.02484327 75.74539089 -0.0253169 C77.4904391 -0.02627605 79.23548731 -0.02724869 80.98053551 -0.02823468 C97.35621116 -0.03679589 113.73183649 -0.02694298 130.10750389 -0.01083358 C144.16837416 0.00257027 158.22917014 0.00024238 172.29003906 -0.01358986 C188.60583216 -0.02963277 204.9215811 -0.03597185 221.23738098 -0.02675307 C222.97612507 -0.02579739 224.71486917 -0.02485428 226.45361328 -0.02392387 C227.30918036 -0.02346105 228.16474745 -0.02299822 229.04624081 -0.02252137 C235.08471165 -0.01992761 241.12315457 -0.02431078 247.16162109 -0.03136253 C254.51729054 -0.03976344 261.87286391 -0.0375272 269.2285223 -0.0215203 C272.98381274 -0.01361849 276.73894281 -0.01057826 280.49423218 -0.02046776 C284.55912085 -0.03101093 288.62360214 -0.01844984 292.68847656 -0.00342751 C293.88388565 -0.01011967 295.07929474 -0.01681184 296.31092834 -0.02370679 C297.93689186 -0.01197193 297.93689186 -0.01197193 299.59570312 0 C301.00411469 0.00073059 301.00411469 0.00073059 302.440979 0.00147593 C304.79785156 0.37752342 304.79785156 0.37752342 306.59564209 1.68236864 C308.62904207 4.54952931 308.2200636 6.99982713 307.79785156 10.37752342 C304.83857643 13.33419805 302.60883912 13.75290296 298.50668335 13.75504684 C297.42830011 13.76287009 296.34991688 13.77069333 295.23885536 13.77875364 C294.05482313 13.77206147 292.8707909 13.76536931 291.65087891 13.75847435 C290.39254934 13.76315432 289.13421978 13.76783429 287.83775902 13.77265608 C284.34275276 13.78520107 280.84799167 13.77897996 277.35298443 13.76969743 C273.58469147 13.76292153 269.81644126 13.7733809 266.04815674 13.78163719 C258.66519625 13.79499236 251.28232714 13.79208887 243.89936304 13.78339927 C237.90024724 13.77663013 231.90115709 13.77570266 225.90203857 13.77897072 C224.62236696 13.77966027 224.62236696 13.77966027 223.31684339 13.78036375 C221.58387644 13.7813229 219.8509095 13.78229554 218.11794257 13.78328152 C201.85954773 13.79184064 185.60120359 13.78199311 169.34281707 13.76588042 C155.38574587 13.75247676 141.42874953 13.75480471 127.47167969 13.7686367 C111.27233205 13.78468331 95.07302887 13.79101661 78.87367439 13.78179991 C77.14700445 13.78084424 75.4203345 13.77990113 73.69366455 13.77897072 C72.41925981 13.77827648 72.41925981 13.77827648 71.11910951 13.77756821 C65.1256805 13.77497556 59.13227964 13.77935524 53.13885498 13.78640938 C45.83703688 13.79481438 38.53531556 13.79256537 31.23350859 13.77656715 C27.50644064 13.76867089 23.77953418 13.76561574 20.05246735 13.7755146 C16.01644508 13.78607209 11.98083223 13.77348505 7.94482422 13.75847435 C6.16877587 13.7685126 6.16877587 13.7685126 4.35684776 13.77875364 C3.27846453 13.7709304 2.20008129 13.76310715 1.08901978 13.75504684 C0.15707605 13.75455979 -0.77486767 13.75407273 -1.73505211 13.75357091 C-4.7082243 13.30038474 -6.08254896 12.49526027 -8.20214844 10.37752342 C-8.94603532 4.42642833 -8.94603532 4.42642833 -6.99993896 1.68236864 C-4.56885716 -0.08212251 -2.99225472 0.00155217 0 0 Z " fill="#A89CA8" transform="translate(106.2021484375,161.6224765777588)"/>
<path d="M0 0 C1.08397568 -0.00583219 2.16795135 -0.01166439 3.28477478 -0.01767331 C4.48018387 -0.01389399 5.67559296 -0.01011467 6.90722656 -0.00622082 C8.17357437 -0.01004636 9.43992218 -0.01387191 10.74464417 -0.01781338 C14.2665931 -0.02813295 17.7884407 -0.02590157 21.3103981 -0.02163279 C25.10595052 -0.01917274 28.90147808 -0.02817067 32.69702148 -0.03567028 C40.13524286 -0.04843904 47.57342818 -0.0502083 55.01165867 -0.04787002 C61.05513982 -0.04608928 67.09861 -0.04783124 73.14208984 -0.05209446 C74.00117919 -0.05268965 74.86026854 -0.05328484 75.74539089 -0.05389806 C77.4904391 -0.05510977 79.2354873 -0.0563239 80.98053551 -0.05754044 C97.35619811 -0.06842417 113.73184013 -0.06624943 130.10750389 -0.06015559 C145.10118725 -0.05498455 160.09480567 -0.06624534 175.08847618 -0.08525381 C190.47145061 -0.10460688 205.85439429 -0.11289274 221.23738098 -0.10913056 C229.87881608 -0.10721481 238.52019589 -0.10974244 247.16162109 -0.1238451 C254.51728422 -0.13572761 261.87285802 -0.13719908 269.2285223 -0.12505493 C272.98381703 -0.11914438 276.73894811 -0.11812644 280.49423218 -0.13005733 C284.55911155 -0.14282216 288.62359735 -0.13250375 292.68847656 -0.11974621 C293.88388565 -0.12712049 295.07929474 -0.13449478 296.31092834 -0.14209253 C297.93689186 -0.13128271 297.93689186 -0.13128271 299.59570312 -0.12025452 C300.53464417 -0.12030953 301.47358521 -0.12036455 302.440979 -0.12042123 C304.79785156 0.25447559 304.79785156 0.25447559 306.59954834 1.59039623 C308.46122709 4.1757028 308.18381864 6.16673898 307.79785156 9.25447559 C306.59954834 10.91838038 306.59954834 10.91838038 304.79785156 12.25447559 C302.440979 12.63052309 302.440979 12.63052309 299.59570312 12.63199902 C297.96973961 12.64373388 297.96973961 12.64373388 296.31092834 12.65570581 C294.51781471 12.64566756 294.51781471 12.64566756 292.68847656 12.63542652 C291.42212875 12.64010649 290.15578094 12.64478647 288.85105896 12.64960825 C285.32906038 12.66216966 281.80730465 12.65592473 278.28530502 12.6466496 C274.48974688 12.63988037 270.69423139 12.65032974 266.89868164 12.65858936 C259.46044023 12.67195169 252.02228947 12.66903787 244.58404446 12.66035144 C238.54055981 12.65358511 232.49710063 12.65265361 226.45361328 12.65592289 C225.59452394 12.65638259 224.73543459 12.65684229 223.85031223 12.65731592 C222.10526402 12.65827506 220.36021582 12.6592477 218.61516762 12.66023369 C202.23949196 12.66879491 185.86386664 12.658942 169.48819923 12.64283259 C155.42732897 12.62942874 141.36653299 12.63175663 127.30566406 12.64558887 C110.98987097 12.66163179 94.67412202 12.66797087 78.35832214 12.65875208 C76.61957805 12.6577964 74.88083395 12.65685329 73.14208984 12.65592289 C72.28652276 12.65546006 71.43095568 12.65499724 70.54946232 12.65452038 C64.51099147 12.65192662 58.47254855 12.65630979 52.43408203 12.66336155 C45.07841258 12.67176245 37.72283922 12.66952622 30.36718082 12.65351932 C26.61189038 12.64561751 22.85676032 12.64257728 19.10147095 12.65246677 C15.03658227 12.66300995 10.97210098 12.65044885 6.90722656 12.63542652 C5.71181747 12.64211869 4.51640839 12.64881085 3.28477478 12.65570581 C2.2007991 12.64788257 1.11682343 12.64005933 0 12.63199902 C-1.40841156 12.63126843 -1.40841156 12.63126843 -2.84527588 12.63052309 C-5.20214844 12.25447559 -5.20214844 12.25447559 -7.00384521 10.95353663 C-9.00117318 8.12154715 -8.56568452 5.58688971 -8.20214844 2.25447559 C-4.88031159 0.03991769 -3.86690383 0.00356971 0 0 Z " fill="#A79BA7" transform="translate(106.2021484375,212.7455244064331)"/>
<path d="M0 0 C3.24599865 2.86789331 5.56716401 6.44665767 8 10 C8.53592773 10.77166504 9.07185547 11.54333008 9.62402344 12.33837891 C13.45926707 17.86328271 17.24635895 23.41938073 21 29 C24.69801282 25.40211388 28.07479782 21.65054831 31.375 17.6875 C32.33803018 16.53993515 33.30157184 15.39279934 34.265625 14.24609375 C34.96268555 13.41634033 34.96268555 13.41634033 35.67382812 12.56982422 C42.44288577 4.55711423 42.44288577 4.55711423 45 2 C48.4375 1.8125 48.4375 1.8125 52 2 C54 4 54 4 54.36328125 7.3046875 C53.94046474 11.6055952 53.03275529 12.94588814 50.1875 16.125 C49.3728125 17.05828125 48.558125 17.9915625 47.71875 18.953125 C47.27917969 19.44361328 46.83960938 19.93410156 46.38671875 20.43945312 C44.42576036 22.64622179 42.52880869 24.90484873 40.62817383 27.16357422 C39.25146261 28.79901663 37.86650418 30.42714783 36.48046875 32.0546875 C34.27681438 34.67131017 32.12300527 37.31778821 30 40 C31.38441509 42.91460118 32.96443758 45.53842091 34.79296875 48.1953125 C35.33808105 48.9891333 35.88319336 49.7829541 36.44482422 50.60083008 C37.01990723 51.43380615 37.59499023 52.26678223 38.1875 53.125 C38.77031738 53.97795654 39.35313477 54.83091309 39.95361328 55.7097168 C42.39421868 59.27275601 44.8308663 62.82632361 47.44921875 66.26171875 C48.08472656 67.10347656 48.72023438 67.94523437 49.375 68.8125 C49.91898437 69.49957031 50.46296875 70.18664062 51.0234375 70.89453125 C52.41842031 73.9021142 51.86457385 75.86270973 51 79 C49 81 49 81 45.875 81.75 C39.65008104 80.54517698 37.42257601 75.99893304 34 71 C33.46407227 70.22833496 32.92814453 69.45666992 32.37597656 68.66162109 C28.54073293 63.13671729 24.75364105 57.58061927 21 52 C17.13687641 55.75699382 13.60638665 59.70198741 10.125 63.8125 C9.5976123 64.42689941 9.07022461 65.04129883 8.52685547 65.67431641 C6.26230875 68.3145483 4.03084362 70.96093519 1.875 73.69140625 C-2.25279619 78.84193766 -2.25279619 78.84193766 -6.25 79.6875 C-9 79 -9 79 -10.875 77.9375 C-12.20200603 75.65210073 -12.78493304 73.73097916 -12.66796875 71.07421875 C-11.41198476 67.17405793 -8.37720418 64.57509536 -5.578125 61.68359375 C-2.99707903 58.99695954 -0.65081585 56.21153444 1.6875 53.3125 C5.0598232 49.14738503 8.49021308 45.04975414 12 41 C10.73849162 38.37242644 9.37563406 35.96040876 7.71484375 33.56640625 C7.04835815 32.60214722 7.04835815 32.60214722 6.3684082 31.6184082 C5.8962085 30.9399585 5.42400879 30.26150879 4.9375 29.5625 C4.4530542 28.85891357 3.9686084 28.15532715 3.46948242 27.43041992 C1.10687421 24.00454142 -1.27871589 20.5999396 -3.7265625 17.234375 C-4.14284912 16.65486084 -4.55913574 16.07534668 -4.98803711 15.47827148 C-6.12273003 13.90245024 -7.2699841 12.33569595 -8.41796875 10.76953125 C-10.10725484 7.81223783 -10.45201688 6.33797078 -10 3 C-7.62839078 -1.04568632 -4.26557996 -0.90905803 0 0 Z " fill="#FFFBFA" transform="translate(235,350)"/>
<path d="M0 0 C0.66621447 -0.00538554 1.33242894 -0.01077108 2.01883173 -0.01631981 C4.24984395 -0.03062053 6.48026461 -0.02349086 8.71130371 -0.01637268 C10.31129941 -0.02207512 11.91129104 -0.02903889 13.51127625 -0.03717041 C17.85626926 -0.05512972 22.20106063 -0.05392841 26.54607964 -0.04822803 C30.17201207 -0.04514056 33.79790552 -0.0512236 37.42383242 -0.05726677 C45.97623205 -0.07131912 54.52853181 -0.06974446 63.08093262 -0.05836487 C71.90834963 -0.04687902 80.73546299 -0.06096547 89.56283998 -0.08776134 C97.13916304 -0.10989973 104.71539064 -0.11656005 112.29174376 -0.11068493 C116.81796762 -0.10731015 121.34399677 -0.10976505 125.87019348 -0.12693596 C130.12531715 -0.14237378 134.37998994 -0.13848509 138.6350956 -0.11963081 C140.19759852 -0.1159363 141.76013462 -0.11907848 143.32260704 -0.1295166 C145.45412026 -0.14267027 147.58412831 -0.13123182 149.71557617 -0.11352539 C151.50527958 -0.11321146 151.50527958 -0.11321146 153.33113861 -0.1128912 C156.98034468 0.49064339 158.16792007 1.45362972 160.35778809 4.38768005 C160.79998324 7.48304613 161.01915502 9.40277926 159.24323273 12.04746437 C156.43504846 14.04358375 154.17413819 13.76543343 150.75317383 13.76863098 C150.07894111 13.77331095 149.4047084 13.77799093 148.71004438 13.78281271 C146.44594242 13.79479938 144.18244165 13.78529163 141.91833496 13.77586365 C140.29716131 13.77992774 138.67599044 13.7852687 137.05482483 13.79179382 C132.64784797 13.80549266 128.24108135 13.80015824 123.83410072 13.79065657 C119.22704111 13.78307324 114.61999976 13.79010188 110.01293945 13.79481506 C102.27547974 13.80027649 94.53810587 13.79307086 86.80065918 13.77879333 C77.84888756 13.76246607 68.89732091 13.7677543 59.94555426 13.78427255 C52.26651168 13.7978764 44.58753089 13.79981248 36.90848017 13.79195654 C32.31915584 13.78727396 27.72992792 13.78667121 23.14060974 13.79656601 C18.82646504 13.80521741 14.51258518 13.79924738 10.19846916 13.78188324 C8.61297483 13.77790859 7.0274583 13.7790691 5.44197273 13.78567123 C3.28181267 13.7938386 1.12250755 13.78362466 -1.03759766 13.76863098 C-2.24770256 13.7674999 -3.45780746 13.76636883 -4.70458221 13.76520348 C-7.64221191 13.38768005 -7.64221191 13.38768005 -9.52765656 12.08262062 C-11.43286848 9.18530291 -11.05987401 6.72897683 -10.64221191 3.38768005 C-7.41295624 -0.00645195 -4.53789062 0.0092417 0 0 Z " fill="#A99EA9" transform="translate(116.6422119140625,82.61231994628906)"/>
<path d="M0 0 C0.66621447 -0.00538554 1.33242894 -0.01077108 2.01883173 -0.01631981 C4.24984395 -0.03062053 6.48026461 -0.02349086 8.71130371 -0.01637268 C10.31129941 -0.02207512 11.91129104 -0.02903889 13.51127625 -0.03717041 C17.85626926 -0.05512972 22.20106063 -0.05392841 26.54607964 -0.04822803 C30.17201207 -0.04514056 33.79790552 -0.0512236 37.42383242 -0.05726677 C45.97623205 -0.07131912 54.52853181 -0.06974446 63.08093262 -0.05836487 C71.90834963 -0.04687902 80.73546299 -0.06096547 89.56283998 -0.08776134 C97.13916304 -0.10989973 104.71539064 -0.11656005 112.29174376 -0.11068493 C116.81796762 -0.10731015 121.34399677 -0.10976505 125.87019348 -0.12693596 C130.12531715 -0.14237378 134.37998994 -0.13848509 138.6350956 -0.11963081 C140.19759852 -0.1159363 141.76013462 -0.11907848 143.32260704 -0.1295166 C145.45412026 -0.14267027 147.58412831 -0.13123182 149.71557617 -0.11352539 C151.50527958 -0.11321146 151.50527958 -0.11321146 153.33113861 -0.1128912 C156.98034468 0.49064339 158.16792007 1.45362972 160.35778809 4.38768005 C160.79998324 7.48304613 161.01915502 9.40277926 159.24323273 12.04746437 C156.43504846 14.04358375 154.17413819 13.76543343 150.75317383 13.76863098 C150.07894111 13.77331095 149.4047084 13.77799093 148.71004438 13.78281271 C146.44594242 13.79479938 144.18244165 13.78529163 141.91833496 13.77586365 C140.29716131 13.77992774 138.67599044 13.7852687 137.05482483 13.79179382 C132.64784797 13.80549266 128.24108135 13.80015824 123.83410072 13.79065657 C119.22704111 13.78307324 114.61999976 13.79010188 110.01293945 13.79481506 C102.27547974 13.80027649 94.53810587 13.79307086 86.80065918 13.77879333 C77.84888756 13.76246607 68.89732091 13.7677543 59.94555426 13.78427255 C52.26651168 13.7978764 44.58753089 13.79981248 36.90848017 13.79195654 C32.31915584 13.78727396 27.72992792 13.78667121 23.14060974 13.79656601 C18.82646504 13.80521741 14.51258518 13.79924738 10.19846916 13.78188324 C8.61297483 13.77790859 7.0274583 13.7790691 5.44197273 13.78567123 C3.28181267 13.7938386 1.12250755 13.78362466 -1.03759766 13.76863098 C-2.24770256 13.7674999 -3.45780746 13.76636883 -4.70458221 13.76520348 C-7.64221191 13.38768005 -7.64221191 13.38768005 -9.52765656 12.08262062 C-11.43286848 9.18530291 -11.05987401 6.72897683 -10.64221191 3.38768005 C-7.41295624 -0.00645195 -4.53789062 0.0092417 0 0 Z " fill="#A99DA9" transform="translate(116.6422119140625,41.61231994628906)"/>
<path d="M0 0 C0.96787949 -0.01268417 1.93575897 -0.02536835 2.93296814 -0.03843689 C3.97675125 -0.03550125 5.02053436 -0.03256561 6.09594727 -0.02954102 C7.70675926 -0.03740379 7.70675926 -0.03740379 9.35011292 -0.04542542 C11.62223445 -0.05185173 13.89438922 -0.05050078 16.16650391 -0.04199219 C19.64554051 -0.03348836 23.1229326 -0.06222697 26.60180664 -0.09399414 C28.80818636 -0.09560634 31.01456898 -0.09502827 33.22094727 -0.09204102 C34.26270615 -0.10327499 35.30446503 -0.11450897 36.37779236 -0.12608337 C43.55155601 -0.05677902 43.55155601 -0.05677902 46.91259766 2.24365234 C48.22485352 4.40405273 48.22485352 4.40405273 48.22485352 7.46655273 C47.03311219 10.96729289 46.45776562 11.67576639 43.22485352 13.40405273 C40.29789886 13.76396692 37.41804567 13.68673059 34.47485352 13.59155273 C33.68208008 13.57801758 32.88930664 13.56448242 32.07250977 13.55053711 C30.12299787 13.51530497 28.17383726 13.46150095 26.22485352 13.40405273 C26.23373596 14.20949524 26.24261841 15.01493774 26.25177002 15.8447876 C26.33193357 23.43703819 26.39282649 31.02908346 26.4321022 38.62164688 C26.45297321 42.52504792 26.48128108 46.42809913 26.52661133 50.33129883 C26.57008779 54.09847194 26.59399429 57.86530868 26.60436249 61.63271332 C26.61175075 63.06966192 26.62617858 64.5065922 26.64777374 65.94339752 C26.67682554 67.95646699 26.67848756 69.96987526 26.67895508 71.9831543 C26.68783752 73.12898987 26.69671997 74.27482544 26.70587158 75.4553833 C26.11942106 79.05035999 25.08214002 80.21537602 22.22485352 82.40405273 C19.72485352 82.90405273 19.72485352 82.90405273 17.22485352 82.40405273 C14.36756701 80.21537602 13.33028597 79.05035999 12.74383545 75.4553833 C12.7527179 74.30954773 12.76160034 73.16371216 12.77075195 71.9831543 C12.77120514 70.03158417 12.77120514 70.03158417 12.77166748 68.04058838 C12.79209266 66.62527858 12.81295662 65.20997506 12.83422852 63.79467773 C12.84169206 62.34308654 12.84738446 60.89148525 12.85137939 59.43988037 C12.86662708 55.62559016 12.90590043 51.81191252 12.95019531 47.99786377 C12.99116729 44.10339647 13.00939446 40.20882985 13.02954102 36.31420898 C13.07239639 28.67721144 13.14063612 21.04071803 13.22485352 13.40405273 C11.45368164 13.45625977 11.45368164 13.45625977 9.64672852 13.50952148 C8.0894511 13.53766505 6.53215827 13.5649646 4.97485352 13.59155273 C4.19754883 13.61668945 3.42024414 13.64182617 2.61938477 13.66772461 C-0.85200306 13.71222958 -3.16669856 13.716295 -6.29467773 12.11108398 C-7.77514648 10.40405273 -7.77514648 10.40405273 -8.21264648 6.90405273 C-7.77514648 3.40405273 -7.77514648 3.40405273 -6.54624939 1.71055603 C-4.24118641 0.01016224 -2.85061623 0.01808251 0 0 Z " fill="#FFFBF9" transform="translate(157.775146484375,351.595947265625)"/>
<path d="M0 0 C1.45666077 -0.01429802 1.45666077 -0.01429802 2.94274902 -0.02888489 C3.98966919 -0.02797348 5.03658936 -0.02706207 6.11523438 -0.02612305 C7.19148071 -0.03040817 8.26772705 -0.0346933 9.37658691 -0.03910828 C11.65290625 -0.04485333 13.92924395 -0.04535056 16.20556641 -0.04101562 C19.69530399 -0.03785419 23.18419531 -0.06131852 26.67382812 -0.08666992 C28.88346247 -0.08894267 31.0930991 -0.08964652 33.30273438 -0.08862305 C34.87311462 -0.10243767 34.87311462 -0.10243767 36.47521973 -0.11653137 C37.4463269 -0.11030258 38.41743408 -0.10407379 39.41796875 -0.09765625 C40.27273804 -0.09828568 41.12750732 -0.0989151 42.00817871 -0.0995636 C44.72474207 0.36235689 45.60436707 1.05901734 47.20898438 3.2746582 C47.64648438 6.7746582 47.64648438 6.7746582 47.20898438 10.2746582 C45.42382598 12.33300707 44.00515832 13.17777841 41.28686523 13.50854492 C39.00333423 13.57022753 36.74208093 13.53598968 34.45898438 13.4621582 C33.66621094 13.44862305 32.8734375 13.43508789 32.05664062 13.42114258 C30.10712873 13.38591044 28.15796812 13.33210641 26.20898438 13.2746582 C26.21564621 14.06757263 26.22230804 14.86048706 26.22917175 15.6774292 C26.28929701 23.15196597 26.33496582 30.62638539 26.36442089 38.10110092 C26.38007317 41.94388907 26.4013031 45.7864773 26.43530273 49.62915039 C26.46791233 53.33795383 26.48584069 57.04656505 26.4936161 60.75550079 C26.49915679 62.17009761 26.50997649 63.58468398 26.52617455 64.99919891 C26.54796738 66.98121368 26.54920994 68.9634221 26.54956055 70.94555664 C26.55622238 72.07362732 26.56288422 73.201698 26.56974792 74.36395264 C26.16585327 77.62264773 25.56222386 79.00706991 23.20898438 81.2746582 C19.70898438 81.7746582 19.70898438 81.7746582 16.20898438 81.2746582 C13.85574489 79.00706991 13.25211548 77.62264773 12.84822083 74.36395264 C12.85488266 73.23588196 12.86154449 72.10781128 12.8684082 70.94555664 C12.8686348 69.66453064 12.86886139 68.38350464 12.86909485 67.06365967 C12.88441363 65.67044727 12.9000616 64.27723847 12.91601562 62.8840332 C12.92161341 61.45485886 12.92588265 60.02567875 12.92887878 58.59649658 C12.94031336 54.8415121 12.96976817 51.08687774 13.00299072 47.33203125 C13.03372177 43.49785091 13.04739058 39.6636138 13.0625 35.8293457 C13.09463957 28.31095721 13.14581867 20.79285683 13.20898438 13.2746582 C12.03980469 13.33266602 10.870625 13.39067383 9.66601562 13.45043945 C8.11787858 13.4973527 6.5696982 13.54285118 5.02148438 13.5871582 C3.8680957 13.65 3.8680957 13.65 2.69140625 13.71411133 C-1.62291636 13.80669336 -3.28595412 13.65878949 -6.84179688 10.9543457 C-8.79101562 8.2746582 -8.79101562 8.2746582 -8.79101562 5.0871582 C-7.13422958 0.42744745 -4.52213296 0.02437527 0 0 Z " fill="#FFFAF8" transform="translate(314.791015625,350.725341796875)"/>
</svg>
