<?xml version="1.0" encoding="UTF-8"?>
<svg version="1.1" xmlns="http://www.w3.org/2000/svg" width="512" height="512">
<path d="M0 0 C1.03321574 -0.06478256 1.03321574 -0.06478256 2.08730453 -0.13087386 C4.39134398 -0.27275532 6.6957055 -0.40789083 9.00022888 -0.54167175 C9.80941206 -0.58953386 10.61859524 -0.63739597 11.45229912 -0.68670845 C27.616082 -1.63287579 43.78728587 -2.21424715 59.97178745 -2.66685963 C70.24500592 -2.96178591 80.48856741 -3.36641067 90.74339294 -4.05729675 C163.78401169 -8.88145047 163.78401169 -8.88145047 189.96238708 13.87019348 C203.45491203 25.92823144 215.2726789 39.78563173 226.20932007 54.16848755 C226.64495891 54.73903398 227.08059776 55.3095804 227.52943778 55.89741611 C229.26665761 58.17544089 230.99555745 60.45596709 232.67771721 62.77506828 C236.7936843 68.04396541 241.94643407 71.24998815 247.49355513 74.83168 C274.82198852 92.58914302 305.55297873 117.40040559 312.78866562 150.76642364 C317.04165159 172.35773131 317.23949352 194.62748831 317.21678162 216.55525208 C317.2163828 217.41852537 317.21598398 218.28179866 317.21557307 219.17123175 C317.18591868 240.69525813 316.5129678 262.18554103 315.57669157 283.68721139 C314.97134789 297.59277493 314.55237324 311.49130567 314.30174255 325.40779114 C314.28508808 326.32969319 314.2684336 327.25159524 314.25127444 328.20143372 C314.18496844 331.91002114 314.11991042 335.61862755 314.05647998 339.32726529 C313.55891706 368.37431872 312.8652164 397.41480722 311.72624254 426.44418859 C311.64296278 428.62275951 311.56587146 430.80146239 311.49072266 432.98032761 C310.6839613 456.05015424 309.52002382 477.55523583 292.61521912 495.17634583 C282.12930714 504.75390372 268.88640786 512.62558581 254.31455326 512.65822315 C253.38664858 512.662681 252.4587439 512.66713884 251.50272089 512.67173177 C249.98640335 512.67145523 249.98640335 512.67145523 248.43945312 512.6711731 C247.35883399 512.67484978 246.27821486 512.67852647 245.1648497 512.68231457 C241.53705463 512.69334398 237.90928821 512.69719404 234.28147888 512.70100403 C231.68279937 512.70726933 229.08412075 512.71391619 226.48544312 512.72091675 C218.68168516 512.74065543 210.87792595 512.75074494 203.07414928 512.75964454 C199.39451397 512.76403247 195.71488008 512.76939804 192.0352459 512.77463341 C179.7946137 512.79164455 167.55398238 512.80613652 155.31334019 512.81338215 C152.13865724 512.81529189 148.9639743 512.81721224 145.78929138 512.81916809 C145.00028771 512.81965183 144.21128403 512.82013557 143.39837115 512.82063397 C130.6302457 512.82892606 117.86221417 512.85424958 105.09412969 512.88674877 C91.9699379 512.91988051 78.84579375 512.9378365 65.72155994 512.94102639 C58.35911955 512.94318604 50.99681607 512.9518543 43.63441658 512.97748756 C36.70278276 513.00156595 29.77139829 513.00498198 22.83973122 512.99472618 C20.30259635 512.99423185 17.76544919 513.00052162 15.22835159 513.01428223 C-6.79275261 513.12698738 -24.00498926 510.71983386 -40.70509338 494.90290833 C-54.94875379 479.84320487 -58.42531409 461.7654397 -58.34277344 441.73095703 C-58.34695406 440.06471741 -58.35243555 438.39848064 -58.35909325 436.73224908 C-58.37347111 432.18621708 -58.36932724 427.64036756 -58.36192644 423.0943259 C-58.35717797 418.17871164 -58.36971945 413.26313591 -58.37994385 408.34753418 C-58.39710466 398.72990505 -58.39797746 389.11234133 -58.39273094 379.49470087 C-58.38868276 371.67382169 -58.3901405 363.85296178 -58.3954792 356.03208351 C-58.39622762 354.91721851 -58.39697605 353.8023535 -58.39774715 352.65370471 C-58.39927869 350.38854834 -58.40081704 348.12339199 -58.40236212 345.85823563 C-58.41607745 324.63498834 -58.41065637 303.41177794 -58.3991769 282.1885315 C-58.38924667 262.7940844 -58.40218331 243.39973274 -58.42611109 224.00530037 C-58.45052374 204.06686283 -58.46010457 184.1284697 -58.45345837 164.19001752 C-58.44997082 153.00581259 -58.45216747 141.82168101 -58.4697094 130.63748741 C-58.4844585 121.11620144 -58.48503149 111.59504049 -58.46763849 102.0737569 C-58.45914823 97.22109257 -58.45693046 92.36865132 -58.47229004 87.51599884 C-58.48620627 83.06403416 -58.48128568 78.61248221 -58.4620508 74.16054098 C-58.45831161 72.55971452 -58.46115191 70.95885444 -58.47166245 69.35805812 C-58.59236286 49.54859949 -53.94964414 31.80527832 -39.82228088 17.09822083 C-28.45051339 6.88841867 -15.28410814 0.95682701 0 0 Z " fill="#989BA2" transform="translate(129.95509338378906,-0.5240020751953125)"/>
<path d="M0 0 C75.63472328 -0.20165675 75.63472328 -0.20165675 107.21875 -0.24414062 C114.44791724 -0.25392977 121.67708394 -0.26403212 128.90625 -0.2746582 C129.81228981 -0.27597695 130.71832963 -0.27729569 131.65182519 -0.2786544 C146.27310596 -0.30039224 160.89428825 -0.33980649 175.51551066 -0.38576398 C190.52437751 -0.43254595 205.53319287 -0.46029908 220.54212964 -0.47044247 C229.80112569 -0.47729803 239.05984352 -0.49893902 248.31875391 -0.53958233 C254.67067774 -0.56604219 261.02245805 -0.57399367 267.37443297 -0.56750689 C271.03754457 -0.564309 274.7001705 -0.56915977 278.36319542 -0.59602737 C282.34044264 -0.62498567 286.31706213 -0.6149111 290.29440308 -0.60127258 C292.01914645 -0.62311889 292.01914645 -0.62311889 293.77873313 -0.64540654 C301.95061063 -0.56975601 308.71837976 1.13706788 314.91325939 6.7261669 C322.01476454 14.11696371 322.44031065 22.58662018 322.38818359 32.33178711 C322.39606903 34.15527931 322.39606903 34.15527931 322.40411377 36.01560974 C322.41501049 39.32988374 322.41251919 42.64359149 322.40297651 45.95783305 C322.39533995 49.43963383 322.40243672 52.92141169 322.40713501 56.4032135 C322.41258172 62.24956566 322.40543032 68.09580385 322.39111328 73.94213867 C322.37479642 80.68254933 322.3800725 87.42268757 322.3965925 94.1630916 C322.41024756 99.96888925 322.41210724 105.77460534 322.40427649 111.58041388 C322.39962098 115.03974304 322.39891599 118.49894456 322.40888596 121.9582653 C322.41923575 125.81855564 322.40485277 129.67854589 322.38818359 133.53881836 C322.39425629 134.67208557 322.40032898 135.80535278 322.40658569 136.97296143 C322.33676032 145.73051817 321.24208616 153.80951035 314.90793085 160.32283485 C307.53900196 166.80048614 299.76860027 167.72127667 290.29440308 167.60127258 C288.42561216 167.60768077 288.42561216 167.60768077 286.51906788 167.61421841 C283.08644385 167.62099624 279.65526604 167.60550447 276.2228179 167.58032811 C272.51198585 167.5586336 268.80119444 167.56604985 265.09031677 167.56983948 C258.66954972 167.57245482 252.24903771 167.55683488 245.82833481 167.52865028 C236.5452462 167.48792748 227.26228029 167.47498411 217.97911204 167.46871033 C202.9160179 167.45778088 187.85305953 167.42454342 172.79003906 167.37719727 C158.16211615 167.33126667 143.53423037 167.29594928 128.90625 167.2746582 C127.99462656 167.27331822 127.08300312 167.27197823 126.14375472 167.27059764 C119.01372434 167.26019986 111.88369314 167.25041547 104.75366163 167.24082482 C69.83564978 167.19369947 34.91797801 167.09309806 0 167 C0 111.89 0 56.78 0 0 Z " fill="#262B40" transform="translate(72,220)"/>
<path d="M0 0 C3.93400023 1.82355936 6.64580217 4.37003865 9.66723633 7.42431641 C10.22228348 7.97746521 10.77733063 8.53061401 11.34919739 9.1005249 C13.18172973 10.92935522 15.00696313 12.76528559 16.83203125 14.6015625 C18.10955401 15.88027831 19.3874477 17.15862364 20.66569519 18.43661499 C23.34607678 21.11856087 26.02306668 23.80383165 28.69750977 26.49169922 C32.10841748 29.91951919 35.5257923 33.34079813 38.94554615 36.75979042 C41.58741677 39.40193455 44.22666055 42.0466897 46.86505699 44.6923027 C48.12303486 45.95344161 49.38160065 47.21399437 50.64078712 48.47392654 C52.41123497 50.24656987 54.17833632 52.02248531 55.94458008 53.79931641 C56.4554718 54.30975494 56.96636353 54.82019348 57.49273682 55.34609985 C60.24202813 58.11923049 62.862252 60.9636129 65.41571045 63.91868591 C68.91522639 67.9539806 72.61327092 71.74114598 76.40405273 75.50170898 C77.107332 76.20352798 77.81061127 76.90534698 78.53520203 77.62843323 C80.04708628 79.13654035 81.56012361 80.64349227 83.07421684 82.14938164 C85.46733092 84.52964982 87.8572346 86.9131004 90.24635315 89.29737854 C95.30725791 94.34690925 100.37210536 99.39247382 105.4375 104.4375 C111.33262101 110.30904108 117.22612632 116.18218521 123.11546516 122.05952644 C125.47562374 124.41318016 127.83876029 126.76381636 130.20201111 129.11436462 C131.63538987 130.54411417 133.06863027 131.97400244 134.50170898 133.40405273 C135.16396484 134.06114227 135.8262207 134.71823181 136.50854492 135.39523315 C138.02478925 136.91129805 139.51553731 138.45280249 141 140 C141 140.33 141 140.66 141 141 C125.2659523 141.11705132 109.53202309 141.20509435 93.79764748 141.25906086 C86.49108915 141.28478991 79.18480211 141.319838 71.87841797 141.37719727 C65.50657853 141.42719577 59.13493566 141.4593295 52.76290548 141.47044247 C49.39209032 141.47693373 46.02183728 141.4920766 42.65120316 141.52865028 C38.87862423 141.56508386 35.10719994 141.56993903 31.33447266 141.56762695 C29.67721664 141.59459152 29.67721664 141.59459152 27.98648071 141.62210083 C19.9112623 141.56874604 13.20176182 139.78830103 7.08529091 134.27370167 C0.0639954 126.96003137 -0.43493048 118.63058367 -0.34057617 108.984375 C-0.34101425 107.80302475 -0.34145233 106.6216745 -0.34190369 105.40452576 C-0.33982215 101.51951275 -0.3165202 97.63493715 -0.29296875 93.75 C-0.28569805 91.04858644 -0.28295384 88.34717332 -0.28010559 85.64575195 C-0.27080714 79.27461117 -0.24622346 72.9036261 -0.21605712 66.53255367 C-0.18244428 59.27497084 -0.16600986 52.0173803 -0.15097082 44.75973892 C-0.1196717 29.83973942 -0.06695442 14.91988533 0 0 Z " fill="#252A3F" transform="translate(299,0)"/>
<path d="M0 0 C6.6 0 13.2 0 20 0 C24.45449722 23.71308946 24.45449722 23.71308946 26.41015625 35.1796875 C26.52332687 35.84267349 26.6364975 36.50565948 26.75309753 37.18873596 C27.30312144 40.4181801 27.84784956 43.64843564 28.38745117 46.87963867 C28.58443604 48.04470947 28.7814209 49.20978027 28.984375 50.41015625 C29.15678711 51.44277588 29.32919922 52.47539551 29.50683594 53.53930664 C29.8861781 55.99129858 29.8861781 55.99129858 31 58 C33.8466694 39.56769364 33.8466694 39.56769364 36.625 21.125 C37.67538514 14.06979563 38.79729735 7.03118472 40 0 C46.6 0 53.2 0 60 0 C60 30.03 60 60.06 60 91 C55.71 91 51.42 91 47 91 C46.67 72.19 46.34 53.38 46 34 C44.44218088 45.02273317 44.44218088 45.02273317 42.88916016 56.04614258 C41.86131732 63.30538227 40.80198138 70.53992223 39.40014648 77.73876953 C38.96897307 80.17533341 38.68923241 82.60127761 38.4375 85.0625 C38 89 38 89 37 91 C32.38 91 27.76 91 23 91 C20.03 73.18 17.06 55.36 14 37 C13.67 54.82 13.34 72.64 13 91 C8.71 91 4.42 91 0 91 C0 60.97 0 30.94 0 0 Z " fill="#FBFBFB" transform="translate(230,258)"/>
<path d="M0 0 C6.93 0 13.86 0 21 0 C21.928125 4.516875 21.928125 4.516875 22.875 9.125 C23.06562012 10.04168457 23.25624023 10.95836914 23.45263672 11.90283203 C24.64779416 17.80277506 25.54573673 23.71006512 26.37060547 29.671875 C27.1490867 35.14672716 28.05377999 40.60123763 28.9453125 46.05859375 C29.20911209 47.68045593 29.20911209 47.68045593 29.47824097 49.33508301 C30.21282075 53.85015816 30.94832658 58.36505734 31.69189453 62.87866211 C32.23971786 66.20867595 32.78057249 69.53976151 33.3203125 72.87109375 C33.57338669 74.39155556 33.57338669 74.39155556 33.83157349 75.94273376 C33.98528412 76.89805496 34.13899475 77.85337616 34.29736328 78.83764648 C34.43345001 79.66811996 34.56953674 80.49859344 34.70974731 81.35423279 C35.0605306 84.55176016 35 87.78328892 35 91 C30.38 91 25.76 91 21 91 C20.34 85.72 19.68 80.44 19 75 C13.06 75 7.12 75 1 75 C0.34 80.28 -0.32 85.56 -1 91 C-5.29 91 -9.58 91 -14 91 C-14.39468455 84.55348568 -13.22233979 78.82713975 -11.88305664 72.53027344 C-10.93860034 67.86390736 -10.26617112 63.17661415 -9.62109375 58.4609375 C-8.11885962 47.72584626 -6.5008845 37.01083334 -4.83789062 26.29956055 C-4.36516568 23.24903856 -3.89744027 20.19777227 -3.4296875 17.14648438 C-3.12790714 15.19786972 -2.82583554 13.24930014 -2.5234375 11.30078125 C-2.38489349 10.3926619 -2.24634949 9.48454254 -2.10360718 8.54890442 C-1.97322052 7.71590317 -1.84283386 6.88290192 -1.70849609 6.0246582 C-1.53886856 4.92720024 -1.53886856 4.92720024 -1.36581421 3.80757141 C-1 2 -1 2 0 0 Z " fill="#F9F9FA" transform="translate(188,258)"/>
<path d="M0 0 C4.95 0 9.9 0 15 0 C15.31453125 1.26972656 15.6290625 2.53945313 15.953125 3.84765625 C18.29251006 13.26395656 20.67475092 22.66383129 23.203125 32.03125 C23.82538572 34.34947621 24.4286401 36.66885159 25 39 C27.01077711 33.34288545 28.45293409 27.56112197 29.9375 21.75 C31.80410506 14.44589324 33.78875909 7.2079853 36 0 C40.62 0 45.24 0 50 0 C48.61914251 5.71143403 47.0353771 11.32094358 45.3125 16.9375 C42.51214581 26.14608608 39.90273082 35.40228778 37.3605957 44.68530273 C37.08175537 45.69536377 36.80291504 46.7054248 36.515625 47.74609375 C36.14872559 49.08692017 36.14872559 49.08692017 35.77441406 50.45483398 C35 53 35 53 33.93115234 55.34667969 C32.72074384 58.79574094 32.64591181 62.09322638 32.5859375 65.70703125 C32.56657135 66.43242599 32.5472052 67.15782074 32.5272522 67.90519714 C32.46777892 70.20751422 32.42120155 72.50988219 32.375 74.8125 C32.33679042 76.37957832 32.29773697 77.94663631 32.2578125 79.51367188 C32.16210437 83.34228152 32.07795552 87.17098942 32 91 C27.38 91 22.76 91 18 91 C18.00902344 89.040625 18.01804688 87.08125 18.02734375 85.0625 C17.91353537 68.52165284 16.36576838 54.15144859 10.83398438 38.38818359 C9.77253846 35.34864497 8.85149802 32.27417976 7.9375 29.1875 C6.79507005 25.49580495 5.61796672 21.81647152 4.42578125 18.140625 C4.14935791 17.28186768 3.87293457 16.42311035 3.58813477 15.53833008 C3.04038054 13.83858472 2.4876888 12.14042048 1.92944336 10.4440918 C1.55444702 9.27873901 1.55444702 9.27873901 1.171875 8.08984375 C0.9459668 7.39753662 0.72005859 6.70522949 0.48730469 5.99194336 C0 4 0 4 0 0 Z " fill="#FBFBFC" transform="translate(128,258)"/>
<path d="M0 0 C1.93062538 -0.01268921 1.93062538 -0.01268921 3.9002533 -0.02563477 C5.32449467 -0.01980199 6.7487348 -0.01365749 8.17297363 -0.00723267 C9.67444745 -0.01129822 11.17591827 -0.01664001 12.67738342 -0.02316284 C16.75380597 -0.03684428 20.83000084 -0.03153444 24.90642738 -0.02202559 C29.17134848 -0.01443326 33.43625002 -0.02147341 37.70117188 -0.02618408 C44.86352032 -0.03164288 52.02577599 -0.02444677 59.18811035 -0.01016235 C67.47017271 0.00616443 75.75201351 0.000876 84.03407049 -0.01564157 C91.14330362 -0.02925291 98.25247003 -0.03117783 105.36171198 -0.02332556 C109.60844206 -0.0186471 113.85506798 -0.01802893 118.10179138 -0.02793503 C122.09421606 -0.03659732 126.08635492 -0.03059646 130.0787487 -0.01325226 C131.54449425 -0.00928345 133.01026383 -0.01042823 134.47599983 -0.01704025 C136.47560903 -0.02522936 138.47527074 -0.01314244 140.47485352 0 C142.15394176 0.00169662 142.15394176 0.00169662 143.86695099 0.00342751 C147.03678792 0.42032275 148.40991203 1.24500761 150.73742676 3.38095093 C150.42492676 6.75595093 150.42492676 6.75595093 149.73742676 10.38095093 C146.21349902 12.73023609 144.76813489 12.63589185 140.59510803 12.64837646 C139.30939911 12.65690643 138.02369019 12.6654364 136.69902039 12.67422485 C135.27114856 12.67352581 133.84327683 12.67260273 132.41540527 12.67147827 C130.91407944 12.67746153 129.41275668 12.6842666 127.91143799 12.6918335 C123.83088228 12.70952031 119.75041041 12.71418997 115.66982007 12.71546507 C112.26513783 12.7173629 108.86047518 12.724719 105.45580047 12.73180926 C97.42458445 12.74810061 89.39341327 12.75297749 81.36218262 12.7515564 C73.07272363 12.75035439 64.78352477 12.7714661 56.49413162 12.80304372 C49.38067922 12.82917779 42.26731193 12.83992492 35.15381187 12.83864558 C30.90365741 12.83813514 26.65373412 12.84386309 22.4036274 12.86500168 C18.40707197 12.88433625 14.41096939 12.88454172 10.41439819 12.86996841 C8.9470294 12.86787331 7.47963261 12.87262292 6.01231194 12.88468933 C4.01050783 12.90008583 2.00855002 12.88846012 0.00672913 12.87542725 C-1.67430735 12.87706155 -1.67430735 12.87706155 -3.38930416 12.87872887 C-6.92241099 12.2666377 -8.10022132 11.1893801 -10.26257324 8.38095093 C-10.76257324 5.81845093 -10.76257324 5.81845093 -10.26257324 3.38095093 C-7.02204126 0.16275878 -4.46280729 0.00450939 0 0 Z " fill="#2B3044" transform="translate(121.2625732421875,98.61904907226563)"/>
<path d="M0 0 C4.62 0 9.24 0 14 0 C14 25.74 14 51.48 14 78 C21.59 78 29.18 78 37 78 C37 82.29 37 86.58 37 91 C24.79 91 12.58 91 0 91 C0 60.97 0 30.94 0 0 Z " fill="#FDFDFE" transform="translate(301,258)"/>
<path d="M0 0 C1.06838608 -0.00845947 2.13677216 -0.01691895 3.23753357 -0.02563477 C4.4095784 -0.01956207 5.58162323 -0.01348938 6.78918457 -0.00723267 C8.02350723 -0.01248962 9.2578299 -0.01774658 10.52955627 -0.02316284 C13.9160288 -0.03411597 17.30195258 -0.03153244 20.68839455 -0.02202559 C24.23042164 -0.01443611 27.77242512 -0.02147261 31.31445312 -0.02618408 C37.26294165 -0.03164373 43.21131847 -0.02444461 49.15979004 -0.01016235 C56.03938292 0.00616465 62.91870908 0.00087629 69.7982955 -0.01564157 C75.70241121 -0.02925055 81.60644658 -0.03117901 87.51057291 -0.02332556 C91.03797179 -0.01864577 94.56524526 -0.01803248 98.09263611 -0.02793503 C102.02414335 -0.03820089 105.95535125 -0.02397681 109.88684082 -0.00723267 C111.05888565 -0.01330536 112.23093048 -0.01937805 113.43849182 -0.02563477 C115.04107094 -0.01294556 115.04107094 -0.01294556 116.67602539 0 C118.07084515 0.00169662 118.07084515 0.00169662 119.49384308 0.00342751 C122.29599923 0.45470866 123.18765879 1.10184934 124.8380127 3.38095093 C125.2755127 6.38095093 125.2755127 6.38095093 124.8380127 9.38095093 C121.87423602 12.27665616 119.71281586 12.75778618 115.63842773 12.76863098 C114.58694046 12.77853561 113.53545319 12.78844025 112.45210266 12.79864502 C111.30392563 12.79414337 110.1557486 12.78964172 108.97277832 12.78500366 C107.15274544 12.79529854 107.15274544 12.79529854 105.29594421 12.80580139 C101.97144918 12.82096694 98.64751481 12.82256363 95.32302666 12.81685901 C92.54707199 12.81376848 89.7711681 12.81985797 86.99522066 12.82589775 C80.44684403 12.83994304 73.89859787 12.83838132 67.35021973 12.82699585 C60.5949674 12.81551023 53.84011187 12.82959735 47.08491182 12.85639232 C41.28351434 12.87854221 35.48224149 12.88518848 29.68080473 12.87931591 C26.21649389 12.87594388 22.75243751 12.87837747 19.28816223 12.89556694 C15.42636525 12.91389291 11.56505727 12.89985628 7.70324707 12.88265991 C5.98098152 12.89716187 5.98098152 12.89716187 4.22392273 12.91195679 C3.17243546 12.90212265 2.12094818 12.89228851 1.03759766 12.88215637 C0.12468712 12.88194709 -0.78822342 12.8817378 -1.72879791 12.88152218 C-4.93657879 12.22159702 -6.14293787 10.90579313 -8.1619873 8.38095093 C-8.5994873 5.81845093 -8.5994873 5.81845093 -8.1619873 3.38095093 C-5.78131621 0.16277073 -3.89261115 0.00473485 0 0 Z " fill="#2A2F44" transform="translate(119.1619873046875,78.61904907226563)"/>
<path d="M0 0 C0.81596146 -0.00845947 1.63192291 -0.01691895 2.47261047 -0.02563477 C3.80989449 -0.01652573 3.80989449 -0.01652573 5.17419434 -0.00723267 C6.11590988 -0.01248962 7.05762543 -0.01774658 8.02787781 -0.02316284 C11.14647925 -0.03638659 14.26457191 -0.02761624 17.38317871 -0.01748657 C19.5464691 -0.01950662 21.70975882 -0.02241748 23.87304688 -0.02618408 C28.40920488 -0.03061066 32.9451858 -0.02416555 37.48132324 -0.01016235 C43.30245306 0.00692959 49.12316795 -0.00290979 54.94428253 -0.02087975 C59.41203958 -0.0317085 63.8796979 -0.0282754 68.34745789 -0.02049637 C70.49411569 -0.01849185 72.64078239 -0.02096242 74.78742981 -0.02793503 C77.78508327 -0.03553446 80.78206016 -0.02396625 83.77966309 -0.00723267 C84.67118576 -0.01330536 85.56270844 -0.01937805 86.48124695 -0.02563477 C87.70518913 -0.01294556 87.70518913 -0.01294556 88.95385742 0 C89.66250694 0.00113108 90.37115646 0.00226215 91.10128021 0.00342751 C93.58761127 0.5038668 94.4919292 1.34766803 95.97692871 3.38095093 C95.85192871 6.94345093 95.85192871 6.94345093 94.97692871 10.38095093 C91.01378229 13.02304854 87.58051704 12.67626515 82.97912598 12.67147827 C82.05852386 12.6781955 81.13792175 12.68491272 80.18942261 12.6918335 C77.14067211 12.71085994 74.09214116 12.71473991 71.04333496 12.71688843 C68.92728077 12.72331267 66.81122747 12.73004075 64.69517517 12.73706055 C60.25741516 12.74904463 55.81973306 12.75274016 51.38195801 12.7515564 C45.69090092 12.75135304 40.00034229 12.77866737 34.30940342 12.81310081 C29.93854978 12.83531895 25.56781711 12.83939551 21.19691277 12.83833694 C19.09851296 12.84070011 17.00011017 12.84956367 14.90176582 12.86500168 C11.96886213 12.88456044 9.03704655 12.87886357 6.10412598 12.86679077 C4.80028709 12.88364929 4.80028709 12.88364929 3.47010803 12.90084839 C-2.39976199 12.83933468 -2.39976199 12.83933468 -5.56617737 10.51074219 C-7.37937517 7.86008054 -7.58828528 6.53000031 -7.02307129 3.38095093 C-4.86252551 0.62327557 -3.46616693 0.00553236 0 0 Z " fill="#2A2F44" transform="translate(118.0230712890625,56.619049072265625)"/>
<path d="M0 0 C1.22695084 -0.00426498 2.45390167 -0.00852997 3.71803284 -0.01292419 C5.09022525 -0.01257463 6.46241764 -0.01211307 7.83460999 -0.0115509 C9.2699187 -0.01454081 10.70522661 -0.01794294 12.14053345 -0.02172852 C16.04957904 -0.03058993 19.95860276 -0.03290752 23.86765742 -0.0335443 C27.12578679 -0.03449163 30.38391101 -0.03816789 33.6420384 -0.0417164 C41.32602323 -0.04986909 49.00999633 -0.05229989 56.69398499 -0.05158997 C64.63231474 -0.05098895 72.57057658 -0.06154363 80.50888914 -0.07733363 C87.31398303 -0.09038946 94.11905468 -0.09577469 100.92416102 -0.09513456 C104.99312477 -0.09487899 109.06202821 -0.09776224 113.13097954 -0.10831261 C116.95667326 -0.11796077 120.78224862 -0.1180955 124.6079464 -0.11079597 C126.01487144 -0.10974602 127.42180372 -0.11213718 128.82871628 -0.11815643 C130.74378767 -0.12582128 132.65889902 -0.12005731 134.57397461 -0.11352539 C135.64748641 -0.11407016 136.72099821 -0.11461493 137.82704067 -0.1151762 C140.35047913 0.13371277 140.35047913 0.13371277 142.35047913 2.13371277 C141.81476484 5.66942705 141.81476484 5.66942705 140.35047913 7.13371277 C138.46948338 7.23463082 136.58465696 7.26448389 134.70095825 7.26742554 C133.47400742 7.27169052 132.24705658 7.27595551 130.98292542 7.28034973 C129.610733 7.28000017 128.23854061 7.27953861 126.86634827 7.27897644 C125.43103955 7.28196634 123.99573164 7.28536848 122.5604248 7.28915405 C118.65137922 7.29801547 114.74235549 7.30033306 110.83330083 7.30096984 C107.57517146 7.30191717 104.31704724 7.30559342 101.05891985 7.30914193 C93.37493502 7.31729463 85.69096192 7.31972543 78.00697327 7.3190155 C70.06864352 7.31841449 62.13038167 7.32896916 54.19206911 7.34475917 C47.38697522 7.35781499 40.58190357 7.36320023 33.77679724 7.36256009 C29.70783349 7.36230453 25.63893004 7.36518778 21.56997871 7.37573814 C17.74428499 7.38538631 13.91870963 7.38552104 10.09301186 7.37822151 C8.68608681 7.37717156 7.27915453 7.37956271 5.87224197 7.38558197 C3.95717058 7.39324682 2.04205924 7.38748285 0.12698364 7.38095093 C-1.48328406 7.38176808 -1.48328406 7.38176808 -3.12608242 7.38260174 C-5.64952087 7.13371277 -5.64952087 7.13371277 -7.64952087 5.13371277 C-6.82984064 -0.27617678 -5.15646405 0.00805251 0 0 Z " fill="#252A3F" transform="translate(188.64952087402344,480.8662872314453)"/>
<path d="M0 0 C1.0095575 -0.00281982 2.01911499 -0.00563965 3.05926514 -0.00854492 C4.72689911 -0.00550858 4.72689911 -0.00550858 6.42822266 -0.00241089 C8.17948456 -0.00503937 8.17948456 -0.00503937 9.96612549 -0.00772095 C13.17266455 -0.01137508 16.37916252 -0.01050859 19.58570099 -0.00734186 C22.93734269 -0.00481466 26.28898329 -0.00715681 29.640625 -0.00872803 C35.26969904 -0.01054866 40.89875998 -0.00814618 46.52783203 -0.00338745 C53.04095955 0.00205497 59.55405578 0.00029224 66.06718254 -0.00521386 C71.6536225 -0.00974799 77.24005302 -0.01039406 82.82649422 -0.00777519 C86.16548223 -0.00621407 89.50445858 -0.00601414 92.84344482 -0.00931168 C96.56443424 -0.01183948 100.2853628 -0.00799574 104.00634766 -0.00241089 C105.11810364 -0.00443512 106.22985962 -0.00645935 107.37530518 -0.00854492 C108.38486267 -0.0057251 109.39442017 -0.00290527 110.43457031 0 C111.75529037 0.00056554 111.75529037 0.00056554 113.10269165 0.0011425 C115.21728516 0.12698364 115.21728516 0.12698364 117.21728516 1.12698364 C117.34228516 3.50198364 117.34228516 3.50198364 117.21728516 6.12698364 C114.70545244 8.63881636 113.90652382 8.37797751 110.43457031 8.38095093 C108.92023407 8.3894104 108.92023407 8.3894104 107.37530518 8.39804077 C106.26354919 8.39399231 105.15179321 8.38994385 104.00634766 8.38577271 C102.83883972 8.38927734 101.67133179 8.39278198 100.46844482 8.39639282 C97.26186408 8.40370118 94.05544769 8.40196819 90.84886932 8.39563465 C87.49722654 8.39058024 84.14558814 8.39526455 80.79394531 8.39840698 C75.16485617 8.40204827 69.53581947 8.3972433 63.90673828 8.38772583 C57.3935787 8.37684094 50.88054432 8.3803664 44.36738777 8.39137864 C38.78093962 8.40044692 33.19452922 8.40173906 27.6080761 8.3965013 C24.26907465 8.39337906 20.93011984 8.39297919 17.59112549 8.39957428 C13.87007066 8.40462998 10.14925926 8.39694256 6.42822266 8.38577271 C5.31646667 8.38982117 4.20471069 8.39386963 3.05926514 8.39804077 C2.04970764 8.39240112 1.04015015 8.38676147 0 8.38095093 C-0.88048004 8.38019688 -1.76096008 8.37944283 -2.66812134 8.37866592 C-4.78271484 8.12698364 -4.78271484 8.12698364 -6.78271484 6.12698364 C-6.90771484 3.50198364 -6.90771484 3.50198364 -6.78271484 1.12698364 C-4.33014096 -0.0993033 -2.74256703 0.00117438 0 0 Z " fill="#2B3044" transform="translate(200.78271484375,465.8730163574219)"/>
<path d="M0 0 C0.87355637 -0.00426498 1.74711273 -0.00852997 2.6471405 -0.01292419 C3.61287994 -0.01247101 4.57861938 -0.01201782 5.57362366 -0.0115509 C7.09058083 -0.01658882 7.09058083 -0.01658882 8.63818359 -0.02172852 C11.9995698 -0.03127032 15.36090637 -0.03318323 18.7223053 -0.03425598 C21.04779074 -0.03746626 23.37327598 -0.04083015 25.69876099 -0.04434204 C30.58055591 -0.05034136 35.46233311 -0.05218111 40.34413147 -0.05158997 C46.61372176 -0.05148828 52.88319895 -0.06514318 59.15276241 -0.08236217 C63.95758592 -0.0934555 68.76238186 -0.09551 73.56721687 -0.09498024 C75.87937879 -0.09616429 78.19154133 -0.10060966 80.50369072 -0.10831261 C83.73151043 -0.11805904 86.95908159 -0.1152557 90.18690491 -0.10920715 C91.15062012 -0.11482666 92.11433533 -0.12044617 93.10725403 -0.12623596 C94.42181831 -0.11994423 94.42181831 -0.11994423 95.76293945 -0.11352539 C96.90862349 -0.11434254 96.90862349 -0.11434254 98.07745266 -0.1151762 C99.94496155 0.13371277 99.94496155 0.13371277 101.94496155 2.13371277 C101.38940599 6.68926832 101.38940599 6.68926832 99.94496155 8.13371277 C98.59622101 8.23332677 97.24233397 8.26445672 95.8899231 8.26742554 C95.01636673 8.27169052 94.14281036 8.27595551 93.24278259 8.28034973 C92.27704315 8.27989655 91.31130371 8.27944336 90.31629944 8.27897644 C88.79934227 8.28401436 88.79934227 8.28401436 87.2517395 8.28915405 C83.8903533 8.29869586 80.52901672 8.30060876 77.1676178 8.30168152 C74.84213235 8.3048918 72.51664712 8.30825569 70.19116211 8.31176758 C65.30936718 8.3177669 60.42758998 8.31960665 55.54579163 8.3190155 C49.27620133 8.31891382 43.00672414 8.33256871 36.73716068 8.34978771 C31.93233717 8.36088104 27.12754123 8.36293554 22.32270622 8.36240578 C20.01054431 8.36358983 17.69838176 8.3680352 15.38623238 8.37573814 C12.15841267 8.38548458 8.9308415 8.38268124 5.70301819 8.37663269 C4.73930298 8.3822522 3.77558777 8.3878717 2.78266907 8.3936615 C1.90629288 8.38946701 1.02991669 8.38527252 0.12698364 8.38095093 C-1.01870039 8.38176808 -1.01870039 8.38176808 -2.18752956 8.38260174 C-4.05503845 8.13371277 -4.05503845 8.13371277 -6.05503845 6.13371277 C-5.43923597 1.08413242 -5.01853448 0.0110167 0 0 Z " fill="#2C3045" transform="translate(208.05503845214844,450.8662872314453)"/>
<path d="M0 0 C0.66 0.33 1.32 0.66 2 1 C2.47070312 3.14208984 2.47070312 3.14208984 2.78125 5.9609375 C2.90113281 6.99089844 3.02101562 8.02085937 3.14453125 9.08203125 C3.26183594 10.16871094 3.37914062 11.25539063 3.5 12.375 C4.29630251 19.48921909 5.18825955 26.50993681 6.60302734 33.53100586 C7.22289262 37.38629337 7.12776049 41.10330511 7 45 C2.71 45 -1.58 45 -6 45 C-4.89340107 34.94947799 -3.59879521 24.94715981 -2.0534668 14.95410156 C-1.28498799 9.97699658 -0.60139914 5.00020428 0 0 Z " fill="#2F3448" transform="translate(197,275)"/>
<path d="M0 0 C0.33 0 0.66 0 1 0 C1 21.12 1 42.24 1 64 C0.67 64 0.34 64 0 64 C-0.33 48.82 -0.66 33.64 -1 18 C-1.33 18 -1.66 18 -2 18 C-1.48758893 11.97099313 -0.930215 5.97995357 0 0 Z " fill="#535767" transform="translate(276,285)"/>
</svg>
